<svg width="68" height="48" viewBox="0 0 68 48" fill="none" xmlns="http://www.w3.org/2000/svg">
<path d="M25.8853 34.8671L18.133 24.5483V34.8671H12.5158V11.5H18.133V21.7522L25.8196 11.5H32.4222L23.4873 22.9505L32.7507 34.8671H25.8853Z" fill="black"/>
<path d="M48.7239 34.8671L41.0373 24.5483V34.8671H35.4202V11.5H41.0373V21.7522L48.7239 11.5H55.3266L46.3917 22.9505L52.5157 31.5L48.7239 34.8671Z" fill="black"/>
<circle cx="49.0443" cy="43.0443" r="4.0443" fill="#FDA300"/>
<path d="M50.5157 33C58.0157 40.5 64.5157 31.5 64.5157 23C64.5157 4.18299 50.5158 3 40.0157 3C36.5157 3 31.0157 3 25.5157 3C13.5157 3 3.51575 8.49999 3.01574 23C2.51572 37.5 14.0157 43 25.5157 43C41.0157 43 33.6824 43 41.0157 43" stroke="black" stroke-width="5"/>
</svg>
